<svg width="24" height="24" viewBox="0 0 24 24" fill="none" xmlns="http://www.w3.org/2000/svg">
<path fill-rule="evenodd" clip-rule="evenodd" d="M9.00494 10.9951L13.5979 6.40205C13.6895 6.3086 13.7987 6.23422 13.9192 6.18324C14.0397 6.13225 14.1692 6.10565 14.3 6.10499C14.4309 6.10433 14.5605 6.12962 14.6816 6.17939C14.8026 6.22915 14.9125 6.30242 15.0051 6.39494C15.0976 6.48747 15.1708 6.59742 15.2206 6.71844C15.2704 6.83945 15.2957 6.96913 15.295 7.09998C15.2943 7.23083 15.2677 7.36025 15.2168 7.48076C15.1658 7.60126 15.0914 7.71047 14.9979 7.80205L11.0979 11.7021L14.9979 15.6021C15.1805 15.7883 15.2822 16.0392 15.2809 16.3C15.2795 16.5608 15.1753 16.8106 14.9909 16.995C14.8065 17.1795 14.5567 17.2837 14.2959 17.285C14.035 17.2863 13.7842 17.1846 13.5979 17.0021L9.00494 12.4101C8.81747 12.2225 8.71216 11.9682 8.71216 11.7031C8.71216 11.4379 8.81747 11.1836 9.00494 10.9961V10.9951Z" fill="#44546F"/>
</svg>
