<svg width="24" height="24" viewBox="0 0 24 24" fill="none" xmlns="http://www.w3.org/2000/svg">
<path fill-rule="evenodd" clip-rule="evenodd" d="M14.9949 10.9951C15.1824 11.1826 15.2877 11.4369 15.2877 11.7021C15.2877 11.9672 15.1824 12.2215 14.9949 12.4091L10.4019 17.0021C10.2156 17.1846 9.96482 17.2863 9.70399 17.285C9.44317 17.2837 9.19339 17.1795 9.00896 16.995C8.82452 16.8106 8.72032 16.5608 8.71901 16.3C8.71769 16.0392 8.81936 15.7884 9.00192 15.6021L12.9019 11.7021L9.00192 7.80207C8.81936 7.61578 8.71769 7.36497 8.71901 7.10414C8.72032 6.84331 8.82452 6.59354 9.00896 6.4091C9.19339 6.22467 9.44317 6.12047 9.70399 6.11915C9.96482 6.11784 10.2156 6.21951 10.4019 6.40207L14.9949 10.9951Z" fill="#44546F"/>
</svg>
