<svg width="24" height="25" viewBox="0 0 24 25" fill="none" xmlns="http://www.w3.org/2000/svg">
<g clip-path="url(#clip0_15714_12877)">
<path d="M24 12.5731C24 5.9457 18.6274 0.573145 12.0001 0.573145C5.37267 0.573145 0.00012207 5.9457 0.00012207 12.5731C0.00012207 18.5626 4.38833 23.527 10.1251 24.4272V16.0418H7.07821V12.5731H10.1251V9.92935C10.1251 6.92186 11.9166 5.26062 14.6576 5.26062C15.9705 5.26062 17.3438 5.495 17.3438 5.495V8.44811H15.8306C14.3399 8.44811 13.8751 9.37311 13.8751 10.3221V12.5731H17.2032L16.6711 16.0418H13.8751V24.4272C19.6118 23.527 24 18.5626 24 12.5731Z" fill="#1877F2"/>
</g>
<defs>
<clipPath id="clip0_15714_12877">
<rect width="24" height="24" fill="white" transform="translate(0 0.5)"/>
</clipPath>
</defs>
</svg>
