<svg width="58" height="44" viewBox="0 0 58 44" fill="none" xmlns="http://www.w3.org/2000/svg">
<g clip-path="url(#clip0_16058_13883)">
<path d="M55.2586 7.06249C53.5968 4.76346 51.1336 3.24256 48.3286 2.79454C45.0758 2.27579 41.7522 3.32509 39.3715 5.56517C37.804 2.68843 34.9754 0.660565 31.7226 0.141809C28.9176 -0.306208 26.1008 0.365817 23.8026 2.0282C21.5043 3.69058 19.984 6.15467 19.5361 8.96067C19.3122 10.3873 19.3593 11.861 19.5951 13.3229C17.7918 14.4548 16.3776 16.1761 15.6351 18.1922C13.1954 16.5888 10.1193 16.1407 7.31434 17.0721C2.28184 18.7345 -0.464232 24.1933 1.19755 29.2393C4.5447 39.4023 22.8951 43.7999 23.6729 43.9767C23.7318 43.9885 23.8026 44.0003 23.8733 44.0003C24.1208 44.0003 24.3565 43.8942 24.5215 43.6938C24.8161 43.3519 28.8468 38.5416 31.6636 32.5995C33.0543 33.9789 34.0443 34.8278 34.2093 34.9692C34.3626 35.0989 34.5629 35.1697 34.7633 35.1697C34.8693 35.1697 34.9872 35.1461 35.0933 35.1107C35.9183 34.7688 55.2704 26.6927 57.1443 14.9735C57.5922 12.1675 56.9204 9.36153 55.2586 7.0507V7.06249ZM23.5551 42.1729C20.5733 41.3948 5.59363 37.0679 2.83577 28.697C1.46862 24.547 3.73148 20.0668 7.86827 18.6992C8.6697 18.4398 9.4947 18.3101 10.3197 18.3101C12.2172 18.3101 14.0911 18.9939 15.5643 20.279C15.7883 20.4794 16.1065 20.5384 16.4011 20.4441C16.684 20.3497 16.9079 20.1139 16.9668 19.8074C17.5679 17.0721 19.5715 14.8438 22.2115 13.9714C24.2151 13.3112 26.3601 13.4644 28.2458 14.4194C30.1315 15.3744 31.534 17.0014 32.194 19.0057C34.9518 27.3647 25.4761 39.7677 23.5551 42.1729ZM55.459 14.7024C53.8915 24.4998 37.9454 31.9864 34.9283 33.3069C34.4451 32.8706 33.5376 32.0218 32.4297 30.9017C34.1386 26.7988 35.1051 22.3304 33.8322 18.4751C33.0308 16.0346 31.3218 14.0539 29.0236 12.8867C26.7254 11.7313 24.1208 11.5309 21.6811 12.3444C21.5279 12.3915 21.3747 12.4623 21.2333 12.5212C21.0918 11.413 21.0801 10.3047 21.2451 9.23184C21.6222 6.87386 22.8951 4.81062 24.8161 3.41941C26.3601 2.29937 28.1633 1.72166 30.0254 1.72166C30.4968 1.72166 30.9801 1.75703 31.4515 1.83956C34.5393 2.33473 37.1793 4.45692 38.3343 7.39261C38.4404 7.67557 38.6997 7.876 38.9943 7.92316C39.289 7.97032 39.5954 7.85242 39.7958 7.62841C41.8111 5.19969 44.9815 4.0089 48.0693 4.49229C50.4265 4.86957 52.489 6.14288 53.8797 8.06464C55.2822 9.99819 55.8361 12.3562 55.459 14.7024Z" fill="#FD9D68"/>
<path d="M50.1906 10.21C49.7546 10.3987 49.5542 10.9056 49.7428 11.3419C50.1435 12.2615 50.2731 13.2872 50.1081 14.2894C49.4128 18.628 43.9324 22.2829 40.7267 24.075C40.3142 24.3108 40.161 24.8295 40.3967 25.2422C40.5499 25.5252 40.8446 25.6784 41.151 25.6784C41.2924 25.6784 41.4338 25.6431 41.5635 25.5723C45.8063 23.2025 51.0392 19.359 51.8053 14.5605C52.0174 13.2401 51.8524 11.8842 51.3103 10.6698C51.1217 10.2336 50.6149 10.0332 50.1788 10.2218L50.1906 10.21Z" fill="#FD9D68"/>
<path d="M24.6274 16.9656C24.1677 16.8359 23.6963 17.1071 23.5667 17.5551C23.437 18.0149 23.7081 18.4865 24.1559 18.6162C25.7234 19.0642 26.9727 20.2432 27.4795 21.7995C28.5756 25.136 26.572 29.5572 24.6863 32.6698C24.4388 33.0706 24.5684 33.6012 24.9809 33.8488C25.1224 33.9313 25.2756 33.9667 25.4288 33.9667C25.7234 33.9667 26.0063 33.8252 26.1595 33.554C28.2338 30.1349 30.4259 25.2185 29.1177 21.2571C28.4342 19.1703 26.7488 17.5669 24.6392 16.9656H24.6274Z" fill="#FD9D68"/>
</g>
<defs>
<clipPath id="clip0_16058_13883">
<rect width="56.5714" height="44" fill="white" transform="translate(0.714355)"/>
</clipPath>
</defs>
</svg>
