<svg width="24" height="24" viewBox="0 0 24 24" fill="none" xmlns="http://www.w3.org/2000/svg">
<path d="M13 6.4912V16.0002C13 16.2654 12.8947 16.5198 12.7071 16.7073C12.5196 16.8948 12.2652 17.0002 12 17.0002C11.7348 17.0002 11.4805 16.8948 11.2929 16.7073C11.1054 16.5198 11 16.2654 11 16.0002V6.4912L9.78403 7.6972C9.58727 7.89176 9.32173 8.00088 9.04502 8.00088C8.76832 8.00088 8.50278 7.89176 8.30602 7.6972C8.209 7.60147 8.13196 7.48742 8.07938 7.36168C8.0268 7.23593 7.99972 7.10099 7.99972 6.9647C7.99972 6.8284 8.0268 6.69346 8.07938 6.56771C8.13196 6.44197 8.209 6.32792 8.30602 6.2322L11.261 3.3032C11.4578 3.10863 11.7233 2.99951 12 2.99951C12.2767 2.99951 12.5423 3.10863 12.739 3.3032L15.694 6.2332C16.102 6.6372 16.102 7.2932 15.694 7.6972C15.4973 7.89176 15.2317 8.00088 14.955 8.00088C14.6783 8.00088 14.4128 7.89176 14.216 7.6972L13 6.4902V6.4912ZM9.00002 9.0002V11.0002H7.00003C6.99803 11.0002 7.00003 18.9912 7.00003 18.9912C7.00003 18.9952 16.994 19.0002 16.994 19.0002C16.997 19.0002 17 11.0092 17 11.0092C17 11.0032 15 11.0002 15 11.0002V9.0002H17C18.105 9.0002 19 9.9022 19 11.0092V18.9912C19 20.1012 18.103 21.0002 16.994 21.0002H7.00603C6.47373 20.9994 5.9635 20.7874 5.58739 20.4107C5.21127 20.034 5.00002 19.5235 5.00003 18.9912V11.0102C4.99871 10.7467 5.04947 10.4856 5.14939 10.2418C5.24931 9.99795 5.39642 9.77629 5.58226 9.58951C5.76811 9.40274 5.98904 9.25452 6.23234 9.15339C6.47565 9.05225 6.73654 9.00019 7.00003 9.0002H9.00002Z" fill="#44546F"/>
</svg>
