<svg width="24" height="24" viewBox="0 0 24 24" fill="none" xmlns="http://www.w3.org/2000/svg">
<path d="M11.9999 10.586L6.70692 5.29296C6.51832 5.1108 6.26571 5.01001 6.00352 5.01228C5.74132 5.01456 5.49051 5.11973 5.3051 5.30514C5.11969 5.49055 5.01452 5.74136 5.01224 6.00356C5.00997 6.26575 5.11076 6.51836 5.29292 6.70696L10.5859 12L5.29292 17.293C5.11076 17.4816 5.00997 17.7342 5.01224 17.9964C5.01452 18.2586 5.11969 18.5094 5.3051 18.6948C5.49051 18.8802 5.74132 18.9854 6.00352 18.9876C6.26571 18.9899 6.51832 18.8891 6.70692 18.707L11.9999 13.414L17.2929 18.707C17.4815 18.8891 17.7341 18.9899 17.9963 18.9876C18.2585 18.9854 18.5093 18.8802 18.6947 18.6948C18.8801 18.5094 18.9853 18.2586 18.9876 17.9964C18.9899 17.7342 18.8891 17.4816 18.7069 17.293L13.4139 12L18.7069 6.70696C18.8024 6.61471 18.8786 6.50437 18.931 6.38236C18.9834 6.26036 19.011 6.12914 19.0122 5.99636C19.0133 5.86358 18.988 5.7319 18.9377 5.60901C18.8875 5.48611 18.8132 5.37446 18.7193 5.28056C18.6254 5.18667 18.5138 5.11242 18.3909 5.06214C18.268 5.01186 18.1363 4.98655 18.0035 4.98771C17.8707 4.98886 17.7395 5.01645 17.6175 5.06886C17.4955 5.12127 17.3852 5.19745 17.2929 5.29296L11.9999 10.586Z" fill="#44546F"/>
</svg>
