<svg width="32" height="32" viewBox="0 0 32 32" fill="none" xmlns="http://www.w3.org/2000/svg">
<path d="M8 22H24.008C24 22 24 10 24 10H7.992C8 10 8 22 8 22ZM6 9.994C6 8.893 6.898 8 7.99 8H24.01C25.108 8 26 8.895 26 9.994V22.006C25.9992 22.5339 25.7894 23.04 25.4165 23.4137C25.0436 23.7873 24.5379 23.9981 24.01 24H7.99C7.46185 23.9989 6.9557 23.7884 6.58261 23.4146C6.20953 23.0407 6 22.5342 6 22.006V9.994Z" fill="#44546F"/>
<path d="M12 10V22H14V10H12ZM18 10V22H20V10H18Z" fill="#44546F"/>
</svg>
