<svg width="16" height="20" viewBox="0 0 16 20" fill="none" xmlns="http://www.w3.org/2000/svg">
<path d="M13.5 5H11V4.5C11 4.10218 10.842 3.72064 10.5607 3.43934C10.2794 3.15804 9.89782 3 9.5 3H6.5C6.10218 3 5.72064 3.15804 5.43934 3.43934C5.15804 3.72064 5 4.10218 5 4.5V5H2.5C2.36739 5 2.24021 5.05268 2.14645 5.14645C2.05268 5.24021 2 5.36739 2 5.5C2 5.63261 2.05268 5.75979 2.14645 5.85355C2.24021 5.94732 2.36739 6 2.5 6H3V15C3 15.2652 3.10536 15.5196 3.29289 15.7071C3.48043 15.8946 3.73478 16 4 16H12C12.2652 16 12.5196 15.8946 12.7071 15.7071C12.8946 15.5196 13 15.2652 13 15V6H13.5C13.6326 6 13.7598 5.94732 13.8536 5.85355C13.9473 5.75979 14 5.63261 14 5.5C14 5.36739 13.9473 5.24021 13.8536 5.14645C13.7598 5.05268 13.6326 5 13.5 5ZM6 4.5C6 4.36739 6.05268 4.24021 6.14645 4.14645C6.24021 4.05268 6.36739 4 6.5 4H9.5C9.63261 4 9.75979 4.05268 9.85355 4.14645C9.94732 4.24021 10 4.36739 10 4.5V5H6V4.5ZM12 15H4V6H12V15ZM7 8.5V12.5C7 12.6326 6.94732 12.7598 6.85355 12.8536C6.75979 12.9473 6.63261 13 6.5 13C6.36739 13 6.24021 12.9473 6.14645 12.8536C6.05268 12.7598 6 12.6326 6 12.5V8.5C6 8.36739 6.05268 8.24021 6.14645 8.14645C6.24021 8.05268 6.36739 8 6.5 8C6.63261 8 6.75979 8.05268 6.85355 8.14645C6.94732 8.24021 7 8.36739 7 8.5ZM10 8.5V12.5C10 12.6326 9.94732 12.7598 9.85355 12.8536C9.75979 12.9473 9.63261 13 9.5 13C9.36739 13 9.24021 12.9473 9.14645 12.8536C9.05268 12.7598 9 12.6326 9 12.5V8.5C9 8.36739 9.05268 8.24021 9.14645 8.14645C9.24021 8.05268 9.36739 8 9.5 8C9.63261 8 9.75979 8.05268 9.85355 8.14645C9.94732 8.24021 10 8.36739 10 8.5Z" fill="#AE2E24"/>
</svg>
