<svg width="32" height="32" viewBox="0 0 32 32" fill="none" xmlns="http://www.w3.org/2000/svg">
<path fill-rule="evenodd" clip-rule="evenodd" d="M10 6H20C20.7956 6 21.5587 6.31607 22.1213 6.87868C22.6839 7.44129 23 8.20435 23 9C23 9.79565 22.6839 10.5587 22.1213 11.1213C21.5587 11.6839 20.7956 12 20 12H10C9.20435 12 8.44129 11.6839 7.87868 11.1213C7.31607 10.5587 7 9.79565 7 9C7 8.20435 7.31607 7.44129 7.87868 6.87868C8.44129 6.31607 9.20435 6 10 6ZM10 8C9.73478 8 9.48043 8.10536 9.29289 8.29289C9.10536 8.48043 9 8.73478 9 9C9 9.26522 9.10536 9.51957 9.29289 9.70711C9.48043 9.89464 9.73478 10 10 10H20C20.2652 10 20.5196 9.89464 20.7071 9.70711C20.8946 9.51957 21 9.26522 21 9C21 8.73478 20.8946 8.48043 20.7071 8.29289C20.5196 8.10536 20.2652 8 20 8H10ZM14 13H22C22.7956 13 23.5587 13.3161 24.1213 13.8787C24.6839 14.4413 25 15.2044 25 16C25 16.7956 24.6839 17.5587 24.1213 18.1213C23.5587 18.6839 22.7956 19 22 19H14C13.2044 19 12.4413 18.6839 11.8787 18.1213C11.3161 17.5587 11 16.7956 11 16C11 15.2044 11.3161 14.4413 11.8787 13.8787C12.4413 13.3161 13.2044 13 14 13ZM14 15C13.7348 15 13.4804 15.1054 13.2929 15.2929C13.1054 15.4804 13 15.7348 13 16C13 16.2652 13.1054 16.5196 13.2929 16.7071C13.4804 16.8946 13.7348 17 14 17H22C22.2652 17 22.5196 16.8946 22.7071 16.7071C22.8946 16.5196 23 16.2652 23 16C23 15.7348 22.8946 15.4804 22.7071 15.2929C22.5196 15.1054 22.2652 15 22 15H14ZM10 20H16C16.7956 20 17.5587 20.3161 18.1213 20.8787C18.6839 21.4413 19 22.2044 19 23C19 23.7956 18.6839 24.5587 18.1213 25.1213C17.5587 25.6839 16.7956 26 16 26H10C9.20435 26 8.44129 25.6839 7.87868 25.1213C7.31607 24.5587 7 23.7956 7 23C7 22.2044 7.31607 21.4413 7.87868 20.8787C8.44129 20.3161 9.20435 20 10 20ZM10 22C9.73478 22 9.48043 22.1054 9.29289 22.2929C9.10536 22.4804 9 22.7348 9 23C9 23.2652 9.10536 23.5196 9.29289 23.7071C9.48043 23.8946 9.73478 24 10 24H16C16.2652 24 16.5196 23.8946 16.7071 23.7071C16.8946 23.5196 17 23.2652 17 23C17 22.7348 16.8946 22.4804 16.7071 22.2929C16.5196 22.1054 16.2652 22 16 22H10Z" fill="#44546F"/>
</svg>
