<svg width="16" height="16" viewBox="0 0 16 16" fill="none" xmlns="http://www.w3.org/2000/svg">
<path fill-rule="evenodd" clip-rule="evenodd" d="M8.66667 7.33334V2.662C8.66596 2.48584 8.59535 2.31716 8.47035 2.19303C8.34534 2.0689 8.17617 1.99947 8 2C7.62934 2 7.33334 2.29667 7.33334 2.662V7.33334H2.662C2.48584 7.33404 2.31716 7.40466 2.19303 7.52966C2.0689 7.65467 1.99947 7.82384 2 8C2 8.37134 2.29667 8.66667 2.662 8.66667H7.33334V13.338C7.33334 13.7033 7.632 14 8 14C8.37067 14 8.66667 13.7033 8.66667 13.338V8.66667H13.338C13.5142 8.66596 13.6828 8.59535 13.807 8.47035C13.9311 8.34534 14.0005 8.17617 14 8C14 7.62934 13.7033 7.33334 13.338 7.33334H8.66667Z" fill="#2E68B1"/>
</svg>
