<svg width="32" height="32" viewBox="0 0 32 32" fill="none" xmlns="http://www.w3.org/2000/svg">
<path d="M9 23.002C9 23 21 23 21 23V20.998C21 21 9 21 9 21V23.002ZM7 20.998C7 19.894 7.895 19 8.994 19H21.006C22.107 19 23 19.898 23 20.998V23.002C23.0003 23.5313 22.7904 24.039 22.4165 24.4137C22.0426 24.7883 21.5353 24.9992 21.006 25H8.994C8.46479 24.9989 7.95762 24.788 7.58379 24.4134C7.20995 24.0388 7 23.5312 7 23.002V20.998Z" fill="#44546F"/>
<path d="M9 19H21V17H9V19ZM7 15H23V21H7V15Z" fill="#44546F"/>
<path d="M11 15.002C11 15 23 15 23 15V12.998C23 13 11 13 11 13V15.002ZM9 12.998C9 11.894 9.895 11 10.994 11H23.006C24.107 11 25 11.898 25 12.998V15.002C25.0003 15.5313 24.7904 16.039 24.4165 16.4137C24.0426 16.7883 23.5353 16.9992 23.006 17H10.994C10.4648 16.9989 9.95762 16.788 9.58379 16.4134C9.20995 16.0388 9 15.5312 9 15.002V12.998Z" fill="#44546F"/>
<path d="M9 9V11H21V9H9ZM7 8.998C7 7.894 7.895 7 8.994 7H21.006C22.107 7 23 7.898 23 8.998V13H7V8.998Z" fill="#44546F"/>
</svg>
