<svg width="96" height="80" viewBox="0 0 96 80" fill="none" xmlns="http://www.w3.org/2000/svg">
<g clip-path="url(#clip0_15519_18142)">
<path d="M47.4591 67.442C47.1336 67.8625 46.7674 68.2964 46.3877 68.6897C44.923 70.2629 43.2007 71.5783 41.18 72.5955C30.6562 77.8574 16.0775 75.8503 9.90693 65.2722C3.74996 54.7348 4.63146 42.0683 14.5043 34.2568C14.7484 34.0669 15.0603 34.3653 14.8434 34.5958C7.19461 43.0583 5.30954 53.4736 11.0054 63.6312C16.6199 73.6533 30.385 76.2571 40.4206 71.2935C42.3599 70.3307 44.028 69.0288 45.4113 67.5099C45.8045 67.0894 46.1707 66.6419 46.4962 66.1944C47.2285 65.2179 47.8523 64.1737 48.3948 63.0752C48.4897 62.8989 48.5711 62.6955 48.666 62.5192C51.5682 56.1045 51.3784 48.0082 48.4219 41.7292C48.0151 40.8748 47.5676 40.0883 47.0929 39.3424C46.7945 38.8677 46.4555 38.4066 46.1165 37.9862C45.3434 36.9827 44.4891 36.0876 43.5669 35.3146C43.16 34.9755 42.7532 34.6501 42.3328 34.3517C36.2436 29.9984 27.7405 29.5916 19.6171 31.4766C19.1424 31.5851 19.1695 31.1376 19.6442 31.002C27.6862 28.7507 36.5691 28.8321 43.0787 33.1583C43.5126 33.4431 43.9602 33.7414 44.367 34.0805C45.2892 34.8128 46.1707 35.64 46.9573 36.5758C47.3099 36.9827 47.6354 37.3895 47.9473 37.837C48.6389 38.7863 49.2628 39.817 49.8052 40.9562C53.7788 49.2152 53.1143 60.268 47.4726 67.442H47.4591Z" fill="#CEB06E"/>
<path d="M56.4233 43.2479C55.3112 39.6812 53.5482 36.5078 51.2834 33.8226C50.9579 33.4157 50.6053 33.0224 50.2527 32.6291C49.3983 31.7476 48.5168 30.9204 47.5811 30.1474C47.1607 29.8083 46.7267 29.4828 46.2927 29.1574C39.6882 24.3837 31.0902 22.58 22.9532 24.7905C8.97117 27.7198 -1.30854 40.183 0.766387 55.277C1.81063 62.9936 5.48583 70.8051 12.2395 75.077C20.8783 80.5559 29.0424 80.6508 36.9759 79.2133C42.3463 78.2233 46.781 75.7144 50.1714 72.2291C50.5375 71.8493 50.8901 71.4696 51.2292 71.0763C52.0429 70.127 52.7888 69.1235 53.4533 68.0657C53.5618 67.9029 53.6567 67.7537 53.7516 67.591C57.9557 60.6203 59.0407 51.6154 56.4368 43.2479H56.4233ZM50.0357 70.0863C49.6831 70.4932 49.317 70.8593 48.9373 71.2255C45.6825 74.4532 41.4784 76.7722 36.5555 77.6537C29.1644 78.9828 21.597 78.6166 13.894 74.1141C7.03186 70.1135 3.42446 62.5054 2.43447 54.9244C0.861318 42.9902 7.4387 32.3308 17.7727 28.1674C28.8661 23.6785 38.2778 25.333 45.1536 30.3915C45.5875 30.7169 46.0079 31.0424 46.4148 31.395C47.3234 32.1545 48.2049 32.9817 49.0051 33.8768C49.3577 34.2701 49.7103 34.6634 50.0357 35.0702C52.0971 37.5927 53.7788 40.4949 55.0264 43.6276C58.5253 52.5376 56.3283 63.0479 50.0357 70.0863Z" fill="#CEB06E"/>
<path d="M49.1135 63.2648C49.0186 63.0885 48.9101 62.9258 48.8288 62.7359C44.5704 54.9922 42.7532 45.7025 46.6047 38.2436C46.8488 37.769 47.12 37.3079 47.4183 36.8604C47.7574 37.2536 48.0829 37.6605 48.3948 38.0945C48.0829 38.5827 47.8116 39.0709 47.5675 39.5727C44.1907 46.3399 45.4926 54.6803 49.1 62.1935C49.2492 62.5325 49.4255 62.858 49.5882 63.1835C49.8052 63.6174 49.3577 63.6988 49.1271 63.2648H49.1135Z" fill="#CEB06E"/>
<path d="M83.8855 64.3765C75.4637 72.5948 63.4346 74.8054 53.7787 67.6041C53.6567 67.5228 53.5482 67.4278 53.4397 67.3465C53.2091 67.1702 53.399 66.804 53.6838 66.9396C53.8194 67.0074 53.9415 67.0888 54.0771 67.1431C63.7736 72.1744 73.9177 71.4014 82.0818 63.7255C90.2459 56.0497 89.4865 42.3931 82.4073 34.0527C75.0433 25.4004 60.7901 26.6887 52.5175 33.4696C52.2327 33.7137 51.9615 33.9442 51.6902 34.1748C51.2563 34.568 50.8494 34.9885 50.4697 35.3953C50.1442 35.002 49.8052 34.6087 49.4661 34.229C49.8459 33.795 50.2527 33.4017 50.6867 33.0085C50.9308 32.7644 51.202 32.5474 51.4732 32.3168C60.3697 24.9257 75.5858 23.7866 83.4787 33.0085C90.9376 41.7286 92.47 56.0225 83.9126 64.3629L83.8855 64.3765Z" fill="#CEB06E"/>
<path d="M91.8733 35.3277C84.3059 20.6947 66.8657 16.6262 52.0428 25.4955C50.0764 26.6754 48.3134 28.0722 46.7809 29.6318C46.3877 30.0251 46.0215 30.4319 45.6689 30.8388C46.0893 31.1643 46.4962 31.4762 46.903 31.8152C47.2556 31.3948 47.6353 30.988 48.0422 30.5947C49.439 29.1707 51.0257 27.8824 52.7481 26.7432C66.486 17.7383 84.0754 23.19 90.8833 37.2399C101.19 58.5316 82.8142 71.1439 75.8706 73.8698C67.2454 77.2467 58.1863 75.6735 51.6089 70.5201C51.202 70.2217 50.8223 69.8963 50.4426 69.5572C50.1035 69.9505 49.7374 70.3167 49.3712 70.6693C49.7645 71.0083 50.1578 71.3338 50.5646 71.6457C57.6438 77.1924 67.2047 79.1046 76.5623 75.3751C83.6143 72.5679 104.187 59.0876 91.8598 35.3006L91.8733 35.3277ZM46.903 65.6922C39.0101 54.8157 39.1729 43.8851 44.1229 35.6396C44.367 35.2192 44.6246 34.8259 44.8959 34.4326C44.489 34.0936 44.0686 33.8088 43.6346 33.524C43.3905 33.9173 43.1329 34.3106 42.9159 34.7038C38.1151 42.8001 37.7625 53.1477 42.4819 61.583C43.4448 63.563 44.6111 65.4074 45.9401 67.0754C46.252 67.4687 46.5775 67.8484 46.903 68.2282C47.2692 67.8349 47.6218 67.4145 47.9472 67.0076C47.6218 66.6143 47.2963 66.2075 46.9979 65.8006C46.9572 65.76 46.9437 65.7328 46.9166 65.6922H46.903Z" fill="#CEB06E"/>
<path d="M42.5498 15.0803C41.5598 12.9105 40.407 10.9983 38.6169 9.45226C38.5355 9.38445 38.2236 9.57431 38.2779 9.6828C39.1322 11.5814 40.2307 13.3173 41.2072 15.1481C39.078 16.7891 30.8732 23.1359 29.1102 24.3429C27.3743 22.6342 19.6171 16.545 17.515 15.1075C18.939 13.1681 20.1731 11.5136 21.5564 9.4387C21.6242 9.34376 34.3857 9.62856 37.2201 9.4387C37.7354 9.39801 37.7896 8.66568 37.2607 8.61144C34.4399 8.35377 23.6991 8.01473 21.3665 8.85555C21.3258 8.85555 17.6642 12.7749 15.969 14.9718C15.6028 15.4465 29.0288 25.3329 29.1102 25.3194C31.3343 24.8176 42.7939 15.6092 42.5498 15.0803Z" fill="#CEB06E"/>
<path d="M35.4977 14.8908C33.0295 14.389 30.4121 14.6195 27.9032 14.5924C24.9603 14.5517 22.031 14.4703 19.0881 14.728C18.8576 14.7551 18.8305 15.0671 19.0746 15.0942C21.9903 15.5146 24.9196 15.5553 27.8625 15.596C30.385 15.6231 33.0024 15.8808 35.4841 15.3654C35.7011 15.3247 35.7418 14.945 35.4977 14.9043V14.8908Z" fill="#CEB06E"/>
<path d="M39.5933 14.8229C38.9424 14.6195 38.1694 14.8229 37.5184 14.9585C37.3963 14.9856 37.437 15.1348 37.532 15.1619C38.1694 15.2704 38.9424 15.4738 39.5662 15.2704C39.7696 15.2026 39.8103 14.9042 39.5798 14.8364L39.5933 14.8229Z" fill="#CEB06E"/>
<path d="M25.5435 9.95442C24.7569 11.2156 24.2145 12.1378 23.6042 13.5076C23.4415 13.8873 23.8483 13.928 24.0653 13.6025C24.9061 12.3006 25.4079 11.5276 25.8147 10.0493C25.8554 9.88661 25.6249 9.83236 25.5435 9.96798V9.95442Z" fill="#CEB06E"/>
<path d="M34.2365 11.6219C33.9653 10.9981 33.6534 10.3471 33.1109 9.92668C33.0566 9.886 32.9888 9.92668 32.9888 9.98093C33.0024 10.6861 33.3414 11.3371 33.6262 11.9609C33.911 12.5983 34.1144 13.3578 34.5484 13.9138C34.684 14.0765 34.9824 14.0223 34.9688 13.7782C34.9281 13.0459 34.5349 12.2864 34.2365 11.6219Z" fill="#CEB06E"/>
<path d="M28.3101 22.0106C27.754 20.885 26.8996 19.8408 26.1944 18.8101C25.5299 17.8336 24.8112 16.9386 23.9568 16.1113C23.8483 16.0164 23.6855 16.1113 23.7534 16.2605C24.2823 17.3183 24.9197 18.2676 25.6384 19.2034C26.4114 20.2069 27.1573 21.319 28.0659 22.2005C28.188 22.3225 28.405 22.1869 28.3236 22.0242L28.3101 22.0106Z" fill="#CEB06E"/>
<path d="M34.25 16.2468C33.4092 16.9113 32.8939 18.0234 32.3243 18.9185C31.6462 19.9627 31.0088 21.0341 30.3714 22.1054C30.3172 22.2004 30.4392 22.2817 30.507 22.2004C31.3207 21.2375 32.0802 20.2746 32.799 19.2439C33.3957 18.3624 34.1958 17.4131 34.4128 16.3689C34.4399 16.2739 34.3314 16.1926 34.25 16.2604V16.2468Z" fill="#CEB06E"/>
<path d="M20.6206 5.68179C19.6035 3.70179 18.2338 1.64042 16.403 0.487685C16.186 0.352069 15.9012 0.663986 15.9961 0.867411C16.8369 2.7796 18.383 4.81384 19.9832 6.26493C20.4579 6.69891 20.9461 6.29206 20.6206 5.68179Z" fill="#CEB06E"/>
<path d="M43.9602 0.42049C42.8346 1.17994 42.1158 2.38692 41.3292 3.47185C40.4613 4.67884 39.7018 5.81802 39.1051 7.18774C38.9153 7.60815 39.4984 7.8387 39.7968 7.60815C40.9224 6.71308 41.7632 5.70952 42.6176 4.55678C43.4177 3.47185 44.3942 2.3598 44.7196 1.0172C44.8146 0.610353 44.3806 0.135696 43.9738 0.406929L43.9602 0.42049Z" fill="#CEB06E"/>
<path d="M37.8981 0.203203C37.1794 1.57293 36.6911 3.7021 37.0573 5.23456C37.098 5.38374 37.3014 5.42443 37.3828 5.28881C37.8032 4.57004 37.9795 3.75635 38.1694 2.94265C38.3728 2.12895 38.6305 1.27457 38.6847 0.43375C38.7118 0.0269016 38.088 -0.176523 37.8981 0.189641V0.203203Z" fill="#CEB06E"/>
<path d="M16.1453 17.6975C14.8705 17.7925 13.7177 18.2129 12.5379 18.6469C11.4936 19.0266 10.3002 19.4063 9.47295 20.1522C9.21528 20.3827 9.39158 20.8167 9.73062 20.8303C10.8698 20.871 12.0497 20.3556 13.1075 19.9759C14.2331 19.569 15.3587 19.1758 16.3351 18.4706C16.6199 18.2671 16.6064 17.6569 16.1453 17.684V17.6975Z" fill="#CEB06E"/>
<path d="M17.6642 20.6542C17.3251 20.9255 16.9183 21.1153 16.5657 21.4001C16.2266 21.6714 15.8876 21.9562 15.5757 22.2545C15.0196 22.7834 14.3687 23.2988 14.0703 24.0311C13.9483 24.343 14.2873 24.682 14.5992 24.6007C15.3858 24.3701 15.9961 23.692 16.5792 23.136C16.8911 22.8377 17.1759 22.4986 17.4607 22.1596C17.7455 21.8205 17.9218 21.4273 18.1931 21.0882C18.4507 20.7627 17.949 20.4373 17.6642 20.6542Z" fill="#CEB06E"/>
<path d="M16.1724 11.1476C15.3723 10.5373 14.4908 10.144 13.5822 9.73718C12.6871 9.33033 11.8327 8.81499 10.8563 8.66581C10.4901 8.61157 10.2596 9.16759 10.5308 9.39814C11.2089 9.99485 12.0633 10.2932 12.877 10.6594C13.867 11.1069 14.8298 11.5409 15.9148 11.7307C16.2674 11.785 16.4843 11.3781 16.186 11.1476H16.1724Z" fill="#CEB06E"/>
<path d="M45.0587 23.8006C44.5705 22.892 43.7161 22.241 42.9431 21.5765C42.1429 20.8984 41.3157 20.2881 40.3799 19.7999C39.8917 19.5422 39.4442 20.0983 39.7832 20.5322C40.4613 21.4002 41.2343 22.1461 42.0751 22.8648C42.821 23.5022 43.5126 24.1803 44.4348 24.5465C44.8688 24.7228 45.2485 24.1803 45.0451 23.8006H45.0587Z" fill="#CEB06E"/>
<path d="M46.5097 21.183C46.1843 20.6541 45.5469 20.4371 44.9908 20.1659C44.4077 19.8811 43.7839 19.6777 43.16 19.4742C42.943 19.4064 42.821 19.7048 42.9973 19.8404C43.5398 20.2201 44.0687 20.6134 44.6247 20.9796C45.1129 21.2915 45.5604 21.7119 46.1571 21.7526C46.4419 21.7797 46.6454 21.4271 46.4962 21.1966L46.5097 21.183Z" fill="#CEB06E"/>
<path d="M50.7139 13.2762C49.7103 12.9371 48.5169 13.1948 47.4726 13.2897C46.4962 13.3711 45.6011 13.4796 44.679 13.8593C44.5433 13.9136 44.584 14.117 44.7061 14.1577C45.7639 14.4696 46.781 14.4154 47.8795 14.3747C48.8424 14.334 49.8866 14.4154 50.7817 13.9949C51.1072 13.8458 51.0122 13.3711 50.7139 13.2626V13.2762Z" fill="#CEB06E"/>
<path d="M11.2902 70.2626C9.63567 68.3233 8.22526 66.4382 7.1539 64.1192C6.10965 61.8544 5.30952 59.4947 4.1839 57.2706C4.10253 57.1214 3.88555 57.2299 3.91267 57.379C4.86198 62.0849 7.18102 67.4689 11.019 70.5338C11.2088 70.683 11.4394 70.4524 11.2766 70.2761L11.2902 70.2626Z" fill="#CEB06E"/>
<path d="M3.79062 52.3475C3.72281 51.5338 3.64144 50.7066 3.58719 49.8929C3.57363 49.6623 3.19391 49.581 3.15322 49.8386C2.92267 51.4118 2.73281 53.4596 3.54651 54.8971C3.66856 55.1141 3.93979 54.992 3.96692 54.7886C4.06185 53.9614 3.85842 53.1748 3.77705 52.3611L3.79062 52.3475Z" fill="#CEB06E"/>
<path d="M78.5694 26.1472C73.3618 22.9873 66.0656 22.3093 60.4647 24.7504C60.4104 24.7775 60.4647 24.8453 60.5053 24.8453C67.0556 23.7332 72.209 24.1401 78.366 26.6761C78.6779 26.7982 78.8407 26.3099 78.583 26.1608L78.5694 26.1472Z" fill="#CEB06E"/>
<path d="M31.9988 13.2494C30.0731 12.9646 27.7133 12.8561 25.8012 13.2087C25.652 13.2358 25.652 13.4799 25.8012 13.5071C27.7133 13.8597 30.0324 13.819 31.9446 13.6156C32.1344 13.602 32.2158 13.2765 31.9988 13.2494Z" fill="#CEB06E"/>
</g>
<defs>
<clipPath id="clip0_15519_18142">
<rect width="95.2297" height="80" fill="white" transform="translate(0.495148)"/>
</clipPath>
</defs>
</svg>
