<svg width="24" height="24" viewBox="0 0 24 24" fill="none" xmlns="http://www.w3.org/2000/svg">
<rect x="0.5" y="0.5" width="23" height="23" rx="11.5" fill="white"/>
<rect x="0.5" y="0.5" width="23" height="23" rx="11.5" stroke="#DDE0E5"/>
<path fill-rule="evenodd" clip-rule="evenodd" d="M10.294 9.69799C10.2008 9.60607 10.1268 9.49655 10.0763 9.37578C10.0258 9.25501 9.99976 9.1254 9.99976 8.99449C9.99976 8.86358 10.0258 8.73397 10.0763 8.6132C10.1268 8.49243 10.2008 8.38291 10.294 8.29099C10.4831 8.10443 10.738 7.99982 11.0035 7.99982C11.2691 7.99982 11.524 8.10443 11.713 8.29099L14.678 11.231C14.7802 11.3323 14.8614 11.4529 14.9167 11.5857C14.9721 11.7186 15.0006 11.8611 15.0006 12.005C15.0006 12.1489 14.9721 12.2914 14.9167 12.4242C14.8614 12.5571 14.7802 12.6777 14.678 12.779L11.723 15.709C11.534 15.8959 11.2789 16.0007 11.013 16.0007C10.7472 16.0007 10.4921 15.8959 10.303 15.709C10.2098 15.6171 10.1358 15.5075 10.0853 15.3868C10.0348 15.266 10.0088 15.1364 10.0088 15.0055C10.0088 14.8746 10.0348 14.745 10.0853 14.6242C10.1358 14.5034 10.2098 14.3939 10.303 14.302L12.621 12.005L10.294 9.69799Z" fill="#44546F"/>
</svg>
