<svg width="24" height="24" viewBox="0 0 24 24" fill="none" xmlns="http://www.w3.org/2000/svg">
<path d="M15.673 14.0419L19.346 10.4619L14.27 9.72392L12 5.12492L9.73 9.72492L4.654 10.4619L8.327 14.0419L7.46 19.0969L12 16.7109L16.54 19.0969L15.673 14.0419ZM12 19.0399L7.495 21.4099C7.23962 21.5444 6.95169 21.6047 6.6638 21.584C6.37591 21.5633 6.09956 21.4625 5.86604 21.2929C5.63251 21.1232 5.45114 20.8916 5.34244 20.6242C5.23374 20.3568 5.20207 20.0644 5.251 19.7799L6.111 14.7629L2.467 11.2099C2.26043 11.0086 2.11431 10.7534 2.04519 10.4733C1.97607 10.1932 1.98669 9.8994 2.07585 9.62504C2.16501 9.35068 2.32916 9.10675 2.54974 8.92081C2.77031 8.73488 3.03851 8.61438 3.324 8.57292L8.361 7.84092L10.613 3.27692C10.7405 3.01789 10.9381 2.79975 11.1832 2.64721C11.4283 2.49467 11.7113 2.41382 12 2.41382C12.2887 2.41382 12.5717 2.49467 12.8168 2.64721C13.0619 2.79975 13.2595 3.01789 13.387 3.27692L15.639 7.84092L20.676 8.57292C20.9615 8.61438 21.2297 8.73488 21.4503 8.92081C21.6708 9.10675 21.835 9.35068 21.9242 9.62504C22.0133 9.8994 22.0239 10.1932 21.9548 10.4733C21.8857 10.7534 21.7396 11.0086 21.533 11.2099L17.888 14.7629L18.748 19.7789C18.7968 20.0632 18.7651 20.3555 18.6564 20.6228C18.5478 20.89 18.3665 21.1215 18.1331 21.2911C17.8998 21.4607 17.6236 21.5616 17.3359 21.5824C17.0482 21.6032 16.7604 21.5431 16.505 21.4089L12 19.0399Z" fill="#626F86"/>
</svg>
